<svg width="70" height="36" viewBox="0 0 70 36" fill="none" xmlns="http://www.w3.org/2000/svg">
<g clip-path="url(#clip0_49_132)">
<path d="M67.2445 17.0816L67.2074 17.1188C67.4676 16.4126 67.9879 16.1524 68.4339 16.1524C69.0658 16.1524 69.6233 16.6356 69.6233 17.3418C69.6233 17.4905 69.6233 17.6763 69.549 17.8993C68.2481 21.2445 65.4976 22.9542 62.8215 23.2144C61.595 25.2958 59.5879 26.8197 56.7259 26.8197C52.6374 26.8197 50.8162 23.5861 50.8162 20.0551C50.8162 15.7064 53.5667 10.8745 58.1755 10.8745C59.179 10.8745 60.0339 11.0976 60.7401 11.3949C62.8215 12.1754 64.1596 14.8887 64.1596 17.7878C64.1596 18.717 64.0852 19.6462 63.8622 20.5383C65.2375 20.0551 66.5383 18.94 67.2445 17.0816ZM59.4764 13.9223V13.8852C58.6587 13.8852 58.1755 14.963 58.1755 16.2639C58.1755 18.1595 59.2162 19.9064 60.8516 20.5383C61.1118 19.7206 61.2233 18.7914 61.2233 17.7135C61.2233 15.6321 60.5914 13.9223 59.4764 13.9223ZM56.7631 24.1064C57.8038 24.1064 58.8445 23.6604 59.6622 22.7312C57.2463 21.6533 55.7224 19.1259 55.7224 16.7099C55.7224 15.8922 55.8711 15.0374 56.0941 14.294C54.6074 15.5206 53.7525 17.9365 53.7525 20.0551C53.7525 22.8055 55.0534 24.1064 56.7631 24.1064Z" fill="#020908"/>
<path d="M51.39 17.0813L51.3528 17.1185C51.613 16.4123 52.059 16.115 52.505 16.115C53.1369 16.115 53.7687 16.6725 53.7687 17.3787C53.7687 17.5645 53.7316 17.7132 53.6572 17.899C52.2077 21.43 50.0519 25.5557 46.5953 27.9716L46.521 28.715C46.1121 33.1752 43.8449 35.9999 40.9829 35.9999C38.8271 35.9999 37.5634 34.5132 37.5634 32.7663C37.5634 29.607 40.797 28.4548 43.8077 26.5221C43.882 25.7415 43.9192 24.8495 43.9563 23.8459C42.4696 25.4813 40.8714 26.1504 39.459 26.1504C36.6342 26.1504 34.3298 23.8459 34.3298 20.315C34.3298 14.8884 37.8979 11.3203 41.8749 11.3203H41.9121C44.6254 11.3203 47.5245 12.7698 47.5245 15.3716C47.5245 16.2265 47.1528 20.8725 46.8555 24.4778C48.8625 22.5822 50.5351 19.4973 51.39 17.0813ZM39.8678 23.4743C41.2431 23.4743 43.1015 22.6194 44.2537 18.4194C44.4395 17.4902 44.551 16.6725 44.5139 15.7061C44.2909 14.7026 43.436 14.1079 42.2094 14.1079C39.682 14.1079 37.2661 16.5238 37.2661 20.2035C37.2661 22.4336 38.3068 23.4743 39.8678 23.4743ZM41.2802 33.2867H41.3174C42.0979 33.2867 42.9528 32.7663 43.5103 29.4212C41.8749 30.3875 40.351 31.3539 40.351 32.5061C40.351 32.9893 40.7227 33.2867 41.2802 33.2867Z" fill="#020908"/>
<path d="M34.9823 17.0816L34.9452 17.1188C35.2053 16.4126 35.7257 16.1524 36.1717 16.1524C36.8036 16.1524 37.3611 16.6356 37.3611 17.3418C37.3611 17.4905 37.3611 17.6763 37.2868 17.8993C35.9859 21.2445 33.2354 22.9542 30.5593 23.2144C29.3328 25.2958 27.3257 26.8197 24.4637 26.8197C20.3752 26.8197 18.554 23.5861 18.554 20.0551C18.554 15.7064 21.3044 10.8745 25.9133 10.8745C26.9168 10.8745 27.7717 11.0976 28.4779 11.3949C30.5593 12.1754 31.8974 14.8887 31.8974 17.7878C31.8974 18.717 31.823 19.6462 31.6 20.5383C32.9753 20.0551 34.2761 18.94 34.9823 17.0816ZM27.2142 13.9223V13.8852C26.3965 13.8852 25.9133 14.963 25.9133 16.2639C25.9133 18.1595 26.954 19.9064 28.5894 20.5383C28.8496 19.7206 28.9611 18.7914 28.9611 17.7135C28.9611 15.6321 28.3292 13.9223 27.2142 13.9223ZM24.5009 24.1064C25.5416 24.1064 26.5823 23.6604 27.4 22.7312C24.9841 21.6533 23.4602 19.1259 23.4602 16.7099C23.4602 15.8922 23.6089 15.0374 23.8319 14.294C22.3452 15.5206 21.4903 17.9365 21.4903 20.0551C21.4903 22.8055 22.7912 24.1064 24.5009 24.1064Z" fill="#020908"/>
<path d="M20.4429 15.9085C19.9225 15.9085 19.4765 16.1687 19.1791 16.8749C18.2128 19.328 16.2056 23.4909 14.1613 23.4909C12.8741 23.4909 11.878 23.1998 10.8714 22.9056C9.84348 22.6052 8.80467 22.3015 7.43378 22.3015C6.95058 22.3015 6.28154 22.3759 5.64967 22.4874C7.55325 19.8916 8.26439 16.7479 8.95347 10.8056C7.65601 10.723 6.6006 10.4833 5.83132 10.2412C5.00967 17.7777 4.07661 20.6513 0.669037 23.4909C0.22301 23.8626 0 24.383 0 24.9034C0 25.7211 0.706212 26.4273 1.59827 26.4273C1.89562 26.4273 2.23013 26.3158 2.56465 26.1671C4.46027 25.3122 5.6125 25.0892 7.02492 25.0892C7.92309 25.0892 8.99783 25.3461 10.1485 25.621C11.4739 25.9378 12.9 26.2786 14.2729 26.2786C17.2835 26.2786 19.2535 23.3423 21.4464 17.6554C21.558 17.4696 21.5951 17.2466 21.5951 17.0607C21.5951 16.3545 21.0376 15.9085 20.4429 15.9085Z" fill="#020908"/>
<path fill-rule="evenodd" clip-rule="evenodd" d="M6.01991 8.70287C6.693 8.93784 7.74382 9.2114 9.10625 9.29233L9.32926 9.29222C13.5294 9.29222 16.2799 6.6904 16.2799 3.56821C16.2799 1.56109 14.7188 0 12.5258 0C9.58944 0 7.54516 2.00712 6.50443 5.98419C5.20352 5.27798 4.31147 4.01424 3.86544 2.41598C3.64242 1.63543 3.15923 1.15223 2.49018 1.15223C1.67247 1.15223 1.1521 1.78411 1.1521 2.63899C1.1521 5.16648 3.12206 7.58245 6.02123 8.69752L6.01991 8.70287ZM9.55227 6.57889C10.1098 4.01424 11.0019 2.78767 12.1913 2.78767C12.8232 2.78767 13.232 3.15936 13.232 3.8284C13.232 5.05497 11.9311 6.50455 9.55227 6.57889Z" fill="#020908"/>
</g>
<defs>
<clipPath id="clip0_49_132">
<rect width="70" height="36" fill="white"/>
</clipPath>
</defs>
</svg>
