<svg width="70" height="36" viewBox="0 0 70 36" fill="none" xmlns="http://www.w3.org/2000/svg">
<g clip-path="url(#clip0_49_162)">
<path d="M67.2445 17.0815L67.2074 17.1187C67.4676 16.4125 67.9879 16.1523 68.4339 16.1523C69.0658 16.1523 69.6233 16.6355 69.6233 17.3417C69.6233 17.4904 69.6233 17.6762 69.549 17.8992C68.2481 21.2444 65.4976 22.9541 62.8215 23.2143C61.595 25.2957 59.5879 26.8196 56.7259 26.8196C52.6374 26.8196 50.8162 23.586 50.8162 20.055C50.8162 15.7063 53.5667 10.8744 58.1755 10.8744C59.179 10.8744 60.0339 11.0975 60.7401 11.3948C62.8215 12.1753 64.1596 14.8886 64.1596 17.7877C64.1596 18.7169 64.0852 19.6461 63.8622 20.5382C65.2375 20.055 66.5383 18.9399 67.2445 17.0815ZM59.4764 13.9222V13.8851C58.6587 13.8851 58.1755 14.9629 58.1755 16.2638C58.1755 18.1594 59.2162 19.9063 60.8516 20.5382C61.1118 19.7205 61.2233 18.7913 61.2233 17.7134C61.2233 15.632 60.5914 13.9222 59.4764 13.9222ZM56.7631 24.1063C57.8038 24.1063 58.8445 23.6603 59.6622 22.7311C57.2463 21.6532 55.7224 19.1258 55.7224 16.7098C55.7224 15.8921 55.8711 15.0373 56.0941 14.2939C54.6074 15.5205 53.7525 17.9364 53.7525 20.055C53.7525 22.8054 55.0534 24.1063 56.7631 24.1063Z" fill="white"/>
<path d="M51.39 17.0816L51.3528 17.1188C51.613 16.4126 52.059 16.1153 52.505 16.1153C53.1369 16.1153 53.7687 16.6728 53.7687 17.379C53.7687 17.5648 53.7316 17.7135 53.6572 17.8993C52.2077 21.4303 50.0519 25.556 46.5953 27.9719L46.521 28.7153C46.1121 33.1755 43.8449 36.0002 40.9829 36.0002C38.8271 36.0002 37.5634 34.5135 37.5634 32.7666C37.5634 29.6073 40.797 28.4551 43.8077 26.5224C43.882 25.7418 43.9192 24.8498 43.9563 23.8462C42.4696 25.4816 40.8714 26.1507 39.459 26.1507C36.6342 26.1507 34.3298 23.8462 34.3298 20.3153C34.3298 14.8887 37.8979 11.3206 41.8749 11.3206H41.9121C44.6254 11.3206 47.5245 12.7701 47.5245 15.3719C47.5245 16.2268 47.1528 20.8728 46.8555 24.4781C48.8625 22.5825 50.5351 19.4976 51.39 17.0816ZM39.8678 23.4746C41.2431 23.4746 43.1015 22.6197 44.2537 18.4197C44.4395 17.4905 44.551 16.6728 44.5139 15.7064C44.2909 14.7029 43.436 14.1082 42.2094 14.1082C39.682 14.1082 37.2661 16.5241 37.2661 20.2038C37.2661 22.4339 38.3068 23.4746 39.8678 23.4746ZM41.2802 33.287H41.3174C42.0979 33.287 42.9528 32.7666 43.5103 29.4215C41.8749 30.3878 40.351 31.3542 40.351 32.5064C40.351 32.9896 40.7227 33.287 41.2802 33.287Z" fill="white"/>
<path d="M34.9823 17.0815L34.9452 17.1187C35.2053 16.4125 35.7257 16.1523 36.1717 16.1523C36.8036 16.1523 37.3611 16.6355 37.3611 17.3417C37.3611 17.4904 37.3611 17.6762 37.2868 17.8992C35.9859 21.2444 33.2354 22.9541 30.5593 23.2143C29.3328 25.2957 27.3257 26.8196 24.4637 26.8196C20.3752 26.8196 18.554 23.586 18.554 20.055C18.554 15.7063 21.3044 10.8744 25.9133 10.8744C26.9168 10.8744 27.7717 11.0975 28.4779 11.3948C30.5593 12.1753 31.8974 14.8886 31.8974 17.7877C31.8974 18.7169 31.823 19.6461 31.6 20.5382C32.9753 20.055 34.2761 18.9399 34.9823 17.0815ZM27.2142 13.9222V13.8851C26.3965 13.8851 25.9133 14.9629 25.9133 16.2638C25.9133 18.1594 26.954 19.9063 28.5894 20.5382C28.8496 19.7205 28.9611 18.7913 28.9611 17.7134C28.9611 15.632 28.3292 13.9222 27.2142 13.9222ZM24.5009 24.1063C25.5416 24.1063 26.5823 23.6603 27.4 22.7311C24.9841 21.6532 23.4602 19.1258 23.4602 16.7098C23.4602 15.8921 23.6089 15.0373 23.8319 14.2939C22.3452 15.5205 21.4903 17.9364 21.4903 20.055C21.4903 22.8054 22.7912 24.1063 24.5009 24.1063Z" fill="white"/>
<path d="M20.4429 15.9083C19.9225 15.9083 19.4765 16.1685 19.1791 16.8747C18.2128 19.3278 16.2056 23.4907 14.1613 23.4907C12.8741 23.4907 11.878 23.1996 10.8714 22.9054C9.84348 22.605 8.80467 22.3013 7.43378 22.3013C6.95058 22.3013 6.28154 22.3757 5.64967 22.4872C7.55325 19.8914 8.26439 16.7477 8.95347 10.8054C7.65601 10.7228 6.6006 10.4831 5.83132 10.241C5.00967 17.7775 4.07661 20.6511 0.669037 23.4907C0.22301 23.8624 0 24.3828 0 24.9032C0 25.7209 0.706212 26.4271 1.59827 26.4271C1.89562 26.4271 2.23013 26.3156 2.56465 26.1669C4.46027 25.312 5.6125 25.089 7.02492 25.089C7.92309 25.089 8.99783 25.3459 10.1485 25.6208C11.4739 25.9376 12.9 26.2784 14.2729 26.2784C17.2835 26.2784 19.2535 23.3421 21.4464 17.6552C21.558 17.4694 21.5951 17.2464 21.5951 17.0605C21.5951 16.3543 21.0376 15.9083 20.4429 15.9083Z" fill="white"/>
<path fill-rule="evenodd" clip-rule="evenodd" d="M6.01991 8.70287C6.693 8.93784 7.74382 9.2114 9.10625 9.29233L9.32926 9.29222C13.5294 9.29222 16.2799 6.6904 16.2799 3.56821C16.2799 1.56109 14.7188 0 12.5258 0C9.58944 0 7.54516 2.00712 6.50443 5.98419C5.20352 5.27798 4.31147 4.01424 3.86544 2.41598C3.64242 1.63543 3.15923 1.15223 2.49018 1.15223C1.67247 1.15223 1.1521 1.78411 1.1521 2.63899C1.1521 5.16648 3.12206 7.58245 6.02123 8.69752L6.01991 8.70287ZM9.55227 6.57889C10.1098 4.01424 11.0019 2.78767 12.1913 2.78767C12.8232 2.78767 13.232 3.15936 13.232 3.8284C13.232 5.05497 11.9311 6.50455 9.55227 6.57889Z" fill="white"/>
</g>
<defs>
<clipPath id="clip0_49_162">
<rect width="70" height="36" fill="white"/>
</clipPath>
</defs>
</svg>
